<?xml version="1.0" standalone="no"?>
<!DOCTYPE svg PUBLIC "-//W3C//DTD SVG 20010904//EN"
 "http://www.w3.org/TR/2001/REC-SVG-20010904/DTD/svg10.dtd">
<svg version="1.0" xmlns="http://www.w3.org/2000/svg"
 width="320.000000pt" height="302.000000pt" viewBox="0 0 320.000000 302.000000"
 preserveAspectRatio="xMidYMid meet">
<metadata>
Created by potrace 1.16, written by Peter Selinger 2001-2019
</metadata>
<g transform="translate(0.000000,302.000000) scale(0.100000,-0.100000)"
fill="#000000" stroke="none">
<path d="M1250 2771 c-272 -57 -479 -165 -665 -347 -167 -164 -261 -314 -337
-539 -37 -113 -51 -199 -55 -365 -5 -182 4 -245 59 -420 134 -422 476 -751
893 -860 110 -29 278 -54 308 -46 l27 6 0 174 c0 140 -3 176 -15 186 -8 6 -47
16 -86 21 -330 41 -596 243 -736 557 -108 242 -92 550 39 790 63 116 178 250
257 302 13 8 34 23 47 33 80 62 259 126 408 146 38 6 73 14 78 19 5 5 7 87 6
183 l-3 174 -70 2 c-38 1 -108 -6 -155 -16z"/>
</g>
</svg>
